<?xml version="1.0" encoding="utf-8"?>
<!-- Generator: Adobe Illustrator 15.0.0, SVG Export Plug-In . SVG Version: 6.00 Build 0)  -->
<!DOCTYPE svg PUBLIC "-//W3C//DTD SVG 1.1//EN" "http://www.w3.org/Graphics/SVG/1.1/DTD/svg11.dtd">
<svg version="1.1" id="Layer_1" xmlns="http://www.w3.org/2000/svg" xmlns:xlink="http://www.w3.org/1999/xlink" x="0px" y="0px"
	 width="436.175px" height="309.984px" viewBox="-37.921 89.144 436.175 309.984"
	 enable-background="new -37.921 89.144 436.175 309.984" xml:space="preserve">
<rect x="-37.171" y="89.894" fill="#4B9B4B" width="434.675" height="308.484"/>
<polyline fill="none" stroke="#ECEFF1" stroke-width="1.5" stroke-miterlimit="10" points="397.569,276.425 376.979,276.425 
	376.979,211.847 397.569,211.847 "/>
<rect x="-37.171" y="89.894" fill="none" stroke="#ECEFF1" stroke-width="1.5" stroke-miterlimit="10" width="434.675" height="308.484"/>
<circle fill="none" stroke="#ECEFF1" stroke-width="1.5" stroke-miterlimit="10" cx="180.167" cy="244.137" r="34.312"/>
<line fill="none" stroke="#ECEFF1" stroke-width="1.5" stroke-miterlimit="10" x1="180.167" y1="90.143" x2="180.167" y2="398.13"/>
<polyline fill="none" stroke="#ECEFF1" stroke-width="1.5" stroke-miterlimit="10" points="397.717,314.796 340.626,314.796 
	340.626,173.477 397.717,173.477 "/>
<path fill="none" stroke="#ECEFF1" stroke-width="1.5" stroke-miterlimit="10" d="M340.668,268.066
	c-8.52-4.582-14.312-13.578-14.312-23.931c0-10.296,5.729-19.254,14.176-23.858"/>
<polyline fill="none" stroke="#ECEFF1" stroke-width="1.5" stroke-miterlimit="10" points="-36.813,211.847 -16.221,211.847 
	-16.221,276.425 -36.813,276.425 "/>
<polyline fill="none" stroke="#ECEFF1" stroke-width="1.5" stroke-miterlimit="10" points="-36.96,173.477 20.13,173.477 
	20.13,314.796 -36.96,314.796 "/>
<path fill="none" stroke="#ECEFF1" stroke-width="1.5" stroke-miterlimit="10" d="M20.089,220.205
	c8.52,4.582,14.311,13.579,14.311,23.933c0,10.295-5.729,19.252-14.177,23.855"/>
<path fill="none" stroke="#ECEFF1" stroke-width="1.5" stroke-miterlimit="10" d="M397.311,95.893c-3.233,0-5.854-2.621-5.854-5.854
	"/>
<path fill="none" stroke="#ECEFF1" stroke-width="1.5" stroke-miterlimit="10" d="M391.458,398.188c0-3.234,2.621-5.854,5.853-5.854
	"/>
<path fill="none" stroke="#ECEFF1" stroke-width="1.5" stroke-miterlimit="10" d="M-37.17,392.334c3.233,0,5.854,2.618,5.854,5.854"
	/>
<path fill="none" stroke="#ECEFF1" stroke-width="1.5" stroke-miterlimit="10" d="M-31.316,90.039c0,3.232-2.621,5.854-5.854,5.854"
	/>
</svg>
