<?xml version="1.0" encoding="utf-8"?>
<!-- Generator: Adobe Illustrator 15.0.0, SVG Export Plug-In . SVG Version: 6.00 Build 0)  -->
<!DOCTYPE svg PUBLIC "-//W3C//DTD SVG 1.1//EN" "http://www.w3.org/Graphics/SVG/1.1/DTD/svg11.dtd">
<svg version="1.1" id="Layer_1" xmlns="http://www.w3.org/2000/svg" xmlns:xlink="http://www.w3.org/1999/xlink" x="0px" y="0px"
	 width="360.545px" height="488.086px" viewBox="0 0 360.545 488.086" enable-background="new 0 0 360.545 488.086"
	 xml:space="preserve">
<g>
	<defs>
		<path id="SVGID_1_" d="M354.874,488.086c3.12,0,5.671-2.551,5.671-5.669V5.669c0-3.118-2.551-5.669-5.671-5.669H5.669
			C2.551,0,0,2.551,0,5.669v476.748c0,3.118,2.551,5.669,5.669,5.669H354.874z"/>
	</defs>
	<clipPath id="SVGID_2_">
		<use xlink:href="#SVGID_1_"  overflow="visible"/>
	</clipPath>
	
		<radialGradient id="SVGID_3_" cx="-2451.2983" cy="2091.9619" r="0.9993" gradientTransform="matrix(-207.5029 0 0 207.5029 -508471.2188 -433844.1562)" gradientUnits="userSpaceOnUse">
		<stop  offset="0" style="stop-color:#4EAD65"/>
		<stop  offset="1" style="stop-color:#3D9452"/>
	</radialGradient>
	<rect clip-path="url(#SVGID_2_)" fill="url(#SVGID_3_)" width="360.545" height="488.086"/>
</g>
<polyline fill="none" stroke="#ECEFF1" stroke-width="1.5" stroke-miterlimit="10" points="147.984,461.432 147.984,440.842 
	212.562,440.842 212.562,461.432 "/>
<polyline fill="none" stroke="#ECEFF1" stroke-width="1.5" stroke-miterlimit="10" points="193.535,460.958 193.535,470.316 
	167.01,470.316 167.01,460.958 "/>
<rect x="26.031" y="26.692" fill="none" stroke="#ECEFF1" stroke-width="1.5" stroke-miterlimit="10" width="308.484" height="434.675"/>
<circle fill="none" stroke="#ECEFF1" stroke-width="1.5" stroke-miterlimit="10" cx="180.272" cy="244.03" r="34.312"/>
<line fill="none" stroke="#ECEFF1" stroke-width="1.5" stroke-miterlimit="10" x1="334.266" y1="244.03" x2="26.279" y2="244.03"/>
<polyline fill="none" stroke="#ECEFF1" stroke-width="1.5" stroke-miterlimit="10" points="109.613,461.58 109.613,404.489 
	250.932,404.489 250.932,461.58 "/>
<path fill="none" stroke="#ECEFF1" stroke-width="1.5" stroke-miterlimit="10" d="M156.342,404.531
	c4.582-8.52,13.578-14.312,23.931-14.312c10.296,0,19.254,5.729,23.858,14.175"/>
<polyline fill="none" stroke="#ECEFF1" stroke-width="1.5" stroke-miterlimit="10" points="212.562,27.05 212.562,47.642 
	147.984,47.642 147.984,27.05 "/>
<polyline fill="none" stroke="#ECEFF1" stroke-width="1.5" stroke-miterlimit="10" points="167.01,27.526 167.01,18.166 
	193.535,18.166 193.535,27.526 "/>
<polyline fill="none" stroke="#ECEFF1" stroke-width="1.5" stroke-miterlimit="10" points="250.932,26.903 250.932,83.993 
	109.613,83.993 109.613,26.903 "/>
<path fill="none" stroke="#ECEFF1" stroke-width="1.5" stroke-miterlimit="10" d="M204.203,83.952
	c-4.582,8.52-13.579,14.311-23.932,14.311c-10.295,0-19.252-5.729-23.856-14.177"/>
<path fill="none" stroke="#ECEFF1" stroke-width="1.5" stroke-miterlimit="10" d="M328.516,461.174c0-3.234,2.621-5.854,5.854-5.854
	"/>
<path fill="none" stroke="#ECEFF1" stroke-width="1.5" stroke-miterlimit="10" d="M26.221,455.321c3.234,0,5.854,2.621,5.854,5.853"
	/>
<path fill="none" stroke="#ECEFF1" stroke-width="1.5" stroke-miterlimit="10" d="M32.074,26.693c0,3.233-2.618,5.854-5.854,5.854"
	/>
<path fill="none" stroke="#ECEFF1" stroke-width="1.5" stroke-miterlimit="10" d="M334.37,32.547c-3.233,0-5.854-2.621-5.854-5.854"
	/>
</svg>
