<?xml version="1.0" encoding="utf-8"?>
<!-- Generator: Adobe Illustrator 15.0.0, SVG Export Plug-In . SVG Version: 6.00 Build 0)  -->
<!DOCTYPE svg PUBLIC "-//W3C//DTD SVG 1.1//EN" "http://www.w3.org/Graphics/SVG/1.1/DTD/svg11.dtd">
<svg version="1.1" id="Layer_1" xmlns="http://www.w3.org/2000/svg" xmlns:xlink="http://www.w3.org/1999/xlink" x="0px" y="0px"
	 width="721.5px" height="301.5px" viewBox="-142.769 4.242 721.5 301.5" enable-background="new -142.769 4.242 721.5 301.5"
	 xml:space="preserve">
<polyline fill="none" stroke="#ECEFF1" stroke-width="1.5" stroke-miterlimit="10" points="577.833,187.244 557.243,187.244 
	557.243,122.666 577.833,122.666 "/>
<rect x="-142.019" y="4.992" fill="none" stroke="#ECEFF1" stroke-width="1.5" stroke-miterlimit="10" width="720" height="300"/>
<circle fill="none" stroke="#ECEFF1" stroke-width="1.5" stroke-miterlimit="10" cx="217.981" cy="154.993" r="34.312"/>
<line fill="none" stroke="#ECEFF1" stroke-width="1.5" stroke-miterlimit="10" x1="217.981" y1="4.992" x2="217.981" y2="304.992"/>
<polyline fill="none" stroke="#ECEFF1" stroke-width="1.5" stroke-miterlimit="10" points="577.981,225.615 520.89,225.615 
	520.89,84.296 577.981,84.296 "/>
<path fill="none" stroke="#ECEFF1" stroke-width="1.5" stroke-miterlimit="10" d="M520.932,178.885
	c-8.521-4.582-14.312-13.578-14.312-23.931c0-10.296,5.729-19.254,14.176-23.857"/>
<polyline fill="none" stroke="#ECEFF1" stroke-width="1.5" stroke-miterlimit="10" points="-141.871,122.666 -121.279,122.666 
	-121.279,187.244 -141.871,187.244 "/>
<polyline fill="none" stroke="#ECEFF1" stroke-width="1.5" stroke-miterlimit="10" points="-142.019,84.296 -84.929,84.296 
	-84.929,225.615 -142.019,225.615 "/>
<path fill="none" stroke="#ECEFF1" stroke-width="1.5" stroke-miterlimit="10" d="M-84.97,131.024
	c8.521,4.582,14.312,13.579,14.312,23.934c0,10.294-5.729,19.251-14.177,23.855"/>
<path fill="none" stroke="#ECEFF1" stroke-width="1.5" stroke-miterlimit="10" d="M577.981,10.845c-3.233,0-5.854-2.621-5.854-5.854
	"/>
<path fill="none" stroke="#ECEFF1" stroke-width="1.5" stroke-miterlimit="10" d="M571.802,304.992c0-3.233,2.621-5.854,5.854-5.854
	"/>
<path fill="none" stroke="#ECEFF1" stroke-width="1.5" stroke-miterlimit="10" d="M-142.019,299.137
	c3.233,0,5.854,2.619,5.854,5.854"/>
<path fill="none" stroke="#ECEFF1" stroke-width="1.5" stroke-miterlimit="10" d="M-136.016,4.992c0,3.231-2.621,5.854-5.854,5.854"
	/>
</svg>
