<?xml version="1.0" encoding="utf-8"?>
<!-- Generator: Adobe Illustrator 15.0.0, SVG Export Plug-In . SVG Version: 6.00 Build 0)  -->
<!DOCTYPE svg PUBLIC "-//W3C//DTD SVG 1.1//EN" "http://www.w3.org/Graphics/SVG/1.1/DTD/svg11.dtd">
<svg version="1.1" id="Layer_1" xmlns="http://www.w3.org/2000/svg" xmlns:xlink="http://www.w3.org/1999/xlink" x="0px" y="0px"
	 width="436.176px" height="309.984px" viewBox="-0.107 0 436.176 309.984" enable-background="new -0.107 0 436.176 309.984"
	 xml:space="preserve">
<polyline fill="none" stroke="#ECEFF1" stroke-width="1.5" stroke-miterlimit="10" points="435.384,187.281 414.794,187.281 
	414.794,122.703 435.384,122.703 "/>
<rect x="0.643" y="0.75" fill="none" stroke="#ECEFF1" stroke-width="1.5" stroke-miterlimit="10" width="434.676" height="308.484"/>
<circle fill="none" stroke="#ECEFF1" stroke-width="1.5" stroke-miterlimit="10" cx="217.981" cy="154.993" r="34.312"/>
<line fill="none" stroke="#ECEFF1" stroke-width="1.5" stroke-miterlimit="10" x1="217.981" y1="0.999" x2="217.981" y2="308.986"/>
<polyline fill="none" stroke="#ECEFF1" stroke-width="1.5" stroke-miterlimit="10" points="435.532,225.652 378.441,225.652 
	378.441,84.333 435.532,84.333 "/>
<path fill="none" stroke="#ECEFF1" stroke-width="1.5" stroke-miterlimit="10" d="M378.483,178.922
	c-8.521-4.582-14.312-13.578-14.312-23.931c0-10.296,5.729-19.254,14.176-23.857"/>
<polyline fill="none" stroke="#ECEFF1" stroke-width="1.5" stroke-miterlimit="10" points="1.002,122.703 21.594,122.703 
	21.594,187.281 1.002,187.281 "/>
<polyline fill="none" stroke="#ECEFF1" stroke-width="1.5" stroke-miterlimit="10" points="0.854,84.333 57.944,84.333 
	57.944,225.652 0.854,225.652 "/>
<path fill="none" stroke="#ECEFF1" stroke-width="1.5" stroke-miterlimit="10" d="M57.903,131.061
	c8.521,4.582,14.312,13.579,14.312,23.934c0,10.294-5.729,19.251-14.177,23.855"/>
<path fill="none" stroke="#ECEFF1" stroke-width="1.5" stroke-miterlimit="10" d="M435.126,6.749c-3.233,0-5.854-2.621-5.854-5.854"
	/>
<path fill="none" stroke="#ECEFF1" stroke-width="1.5" stroke-miterlimit="10" d="M429.272,309.045c0-3.234,2.621-5.855,5.854-5.855
	"/>
<path fill="none" stroke="#ECEFF1" stroke-width="1.5" stroke-miterlimit="10" d="M0.644,303.189c3.233,0,5.854,2.619,5.854,5.855"
	/>
<path fill="none" stroke="#ECEFF1" stroke-width="1.5" stroke-miterlimit="10" d="M6.499,0.895c0,3.232-2.621,5.854-5.854,5.854"/>
</svg>
