<?xml version="1.0" encoding="utf-8"?>
<!-- Generator: Adobe Illustrator 17.0.0, SVG Export Plug-In . SVG Version: 6.00 Build 0)  -->
<!DOCTYPE svg PUBLIC "-//W3C//DTD SVG 1.1//EN" "http://www.w3.org/Graphics/SVG/1.1/DTD/svg11.dtd">
<svg version="1.1" id="Layer_1" xmlns="http://www.w3.org/2000/svg" xmlns:xlink="http://www.w3.org/1999/xlink" x="0px" y="0px"
	 width="436.175px" height="309.984px" viewBox="-63.202 63.096 436.175 309.984"
	 enable-background="new -63.202 63.096 436.175 309.984" xml:space="preserve">
<rect x="-62.452" y="63.846" fill="#68AF6C" width="434.675" height="308.484"/>
<polyline fill="none" stroke="#ECEFF1" stroke-width="1.5" stroke-miterlimit="10" points="372.288,250.377 351.698,250.377 
	351.698,185.799 372.288,185.799 "/>
<rect x="-62.452" y="63.846" fill="none" stroke="#ECEFF1" stroke-width="1.5" stroke-miterlimit="10" width="434.675" height="308.484"/>
<circle fill="none" stroke="#ECEFF1" stroke-width="1.5" stroke-miterlimit="10" cx="154.886" cy="218.089" r="34.312"/>
<line fill="none" stroke="#ECEFF1" stroke-width="1.5" stroke-miterlimit="10" x1="154.886" y1="64.095" x2="154.886" y2="372.082"/>
<polyline fill="none" stroke="#ECEFF1" stroke-width="1.5" stroke-miterlimit="10" points="372.436,288.748 315.345,288.748 
	315.345,147.429 372.436,147.429 "/>
<path fill="none" stroke="#ECEFF1" stroke-width="1.5" stroke-miterlimit="10" d="M315.387,242.019
	c-8.52-4.582-14.312-13.578-14.312-23.931c0-10.296,5.729-19.254,14.176-23.858"/>
<polyline fill="none" stroke="#ECEFF1" stroke-width="1.5" stroke-miterlimit="10" points="-62.094,185.799 -41.502,185.799 
	-41.502,250.377 -62.094,250.377 "/>
<polyline fill="none" stroke="#ECEFF1" stroke-width="1.5" stroke-miterlimit="10" points="-62.241,147.429 -5.151,147.429 
	-5.151,288.748 -62.241,288.748 "/>
<path fill="none" stroke="#ECEFF1" stroke-width="1.5" stroke-miterlimit="10" d="M-5.192,194.158
	c8.52,4.582,14.311,13.579,14.311,23.933c0,10.295-5.729,19.252-14.177,23.855"/>
<path fill="none" stroke="#ECEFF1" stroke-width="1.5" stroke-miterlimit="10" d="M372.03,69.845c-3.233,0-5.854-2.621-5.854-5.854"
	/>
<path fill="none" stroke="#ECEFF1" stroke-width="1.5" stroke-miterlimit="10" d="M366.177,372.14c0-3.234,2.621-5.854,5.853-5.854"
	/>
<path fill="none" stroke="#ECEFF1" stroke-width="1.5" stroke-miterlimit="10" d="M-62.451,366.287c3.233,0,5.854,2.618,5.854,5.854
	"/>
<path fill="none" stroke="#ECEFF1" stroke-width="1.5" stroke-miterlimit="10" d="M-56.597,63.992c0,3.232-2.621,5.854-5.854,5.854"
	/>
</svg>
