<?xml version="1.0" encoding="utf-8"?>
<!-- Generator: Adobe Illustrator 17.0.0, SVG Export Plug-In . SVG Version: 6.00 Build 0)  -->
<!DOCTYPE svg PUBLIC "-//W3C//DTD SVG 1.1//EN" "http://www.w3.org/Graphics/SVG/1.1/DTD/svg11.dtd">
<svg version="1.1" id="Layer_1" xmlns="http://www.w3.org/2000/svg" xmlns:xlink="http://www.w3.org/1999/xlink" x="0px" y="0px"
	 width="400px" height="260px" viewBox="-305.5 396.5 400 260" enable-background="new -305.5 396.5 400 260" xml:space="preserve">
<polyline fill="none" stroke="#ECEFF1" stroke-width="1.5" stroke-miterlimit="10" points="94.364,553.714 75.426,553.714 
	75.426,499.286 94.364,499.286 "/>
<rect x="-305.5" y="396.5" fill="none" stroke="#ECEFF1" stroke-width="3" stroke-miterlimit="10" width="399.804" height="260"/>
<ellipse fill="none" stroke="#ECEFF1" stroke-width="1.5" stroke-miterlimit="10" cx="-105.597" cy="526.501" rx="31.559" ry="28.919"/>
<line fill="none" stroke="#ECEFF1" stroke-width="1.5" stroke-miterlimit="10" x1="-105.597" y1="396.71" x2="-105.597" y2="656.291"/>
<polyline fill="none" stroke="#ECEFF1" stroke-width="1.5" stroke-miterlimit="10" points="94.5,586.054 41.989,586.054 
	41.989,466.946 94.5,466.946 "/>
<path fill="none" stroke="#ECEFF1" stroke-width="1.5" stroke-miterlimit="10" d="M42.028,546.67
	c-7.836-3.862-13.164-11.444-13.164-20.17c0-8.678,5.269-16.228,13.039-20.108"/>
<polyline fill="none" stroke="#ECEFF1" stroke-width="1.5" stroke-miterlimit="10" points="-305.17,499.286 -286.23,499.286 
	-286.23,553.714 -305.17,553.714 "/>
<polyline fill="none" stroke="#ECEFF1" stroke-width="1.5" stroke-miterlimit="10" points="-305.305,466.946 -252.795,466.946 
	-252.795,586.054 -305.305,586.054 "/>
<path fill="none" stroke="#ECEFF1" stroke-width="1.5" stroke-miterlimit="10" d="M-252.833,506.331
	c7.837,3.862,13.163,11.445,13.163,20.171c0,8.677-5.269,16.226-13.04,20.106"/>
<path fill="none" stroke="#ECEFF1" stroke-width="1.5" stroke-miterlimit="10" d="M94.127,401.556c-2.974,0-5.384-2.209-5.384-4.934
	"/>
<path fill="none" stroke="#ECEFF1" stroke-width="1.5" stroke-miterlimit="10" d="M88.744,656.34c0-2.726,2.411-4.934,5.383-4.934"
	/>
<path fill="none" stroke="#ECEFF1" stroke-width="1.5" stroke-miterlimit="10" d="M-305.499,651.407
	c2.974,0,5.384,2.207,5.384,4.934"/>
<path fill="none" stroke="#ECEFF1" stroke-width="1.5" stroke-miterlimit="10" d="M-300.114,396.623
	c0,2.724-2.411,4.934-5.384,4.934"/>
</svg>
