<?xml version="1.0" encoding="utf-8"?>
<!-- Generator: Adobe Illustrator 17.0.0, SVG Export Plug-In . SVG Version: 6.00 Build 0)  -->
<!DOCTYPE svg PUBLIC "-//W3C//DTD SVG 1.1//EN" "http://www.w3.org/Graphics/SVG/1.1/DTD/svg11.dtd">
<svg version="1.1" id="Layer_1" xmlns="http://www.w3.org/2000/svg" xmlns:xlink="http://www.w3.org/1999/xlink" x="0px" y="0px"
	 width="403px" height="203px" viewBox="-1.598 28.5 403 203" enable-background="new -1.598 28.5 403 203" xml:space="preserve">
<polyline fill="none" stroke="#ECEFF1" stroke-width="1.5" stroke-miterlimit="10" points="399.815,157.214 380.882,157.214 
	380.882,102.786 399.815,102.786 "/>
<rect x="-0.049" y="30" fill="none" stroke="#ECEFF1" stroke-width="3" stroke-miterlimit="10" width="399.902" height="200"/>
<ellipse fill="none" stroke="#ECEFF1" stroke-width="1.5" stroke-miterlimit="10" cx="199.903" cy="130.001" rx="31.551" ry="28.919"/>
<line fill="none" stroke="#ECEFF1" stroke-width="1.5" stroke-miterlimit="10" x1="199.903" y1="30.162" x2="199.903" y2="229.839"/>
<polyline fill="none" stroke="#ECEFF1" stroke-width="1.5" stroke-miterlimit="10" points="399.951,189.554 347.453,189.554 
	347.453,70.446 399.951,70.446 "/>
<path fill="none" stroke="#ECEFF1" stroke-width="1.5" stroke-miterlimit="10" d="M347.492,150.17
	c-7.834-3.862-13.161-11.444-13.161-20.17c0-8.678,5.268-16.228,13.036-20.108"/>
<polyline fill="none" stroke="#ECEFF1" stroke-width="1.5" stroke-miterlimit="10" points="0.379,102.786 19.314,102.786 
	19.314,157.214 0.379,157.214 "/>
<polyline fill="none" stroke="#ECEFF1" stroke-width="1.5" stroke-miterlimit="10" points="0.244,70.446 52.741,70.446 
	52.741,189.554 0.244,189.554 "/>
<path fill="none" stroke="#ECEFF1" stroke-width="1.5" stroke-miterlimit="10" d="M52.703,109.831
	c7.835,3.862,13.16,11.445,13.16,20.171c0,8.677-5.268,16.226-13.037,20.106"/>
<path fill="none" stroke="#ECEFF1" stroke-width="1.5" stroke-miterlimit="10" d="M399.578,36.056c-2.973,0-5.383-2.209-5.383-4.934
	"/>
<path fill="none" stroke="#ECEFF1" stroke-width="1.5" stroke-miterlimit="10" d="M394.569,228.84c0-2.726,2.41-4.934,5.382-4.934"
	/>
<path fill="none" stroke="#ECEFF1" stroke-width="1.5" stroke-miterlimit="10" d="M0.423,223.907c2.973,0,5.383,2.207,5.383,4.934"
	/>
<path fill="none" stroke="#ECEFF1" stroke-width="1.5" stroke-miterlimit="10" d="M5.434,31.123c0,2.724-2.41,4.934-5.383,4.934"/>
</svg>
